<svg xmlns="http://www.w3.org/2000/svg" xmlns:xlink="http://www.w3.org/1999/xlink" width="500" zoomAndPan="magnify" viewBox="0 0 375 374.999991" height="500" preserveAspectRatio="xMidYMid meet" version="1.0"><path fill="#ffffff" d="M 114.75 329.136719 C 112.199219 327.863281 110.476562 325.164062 110.476562 322.164062 C 110.476562 300.9375 119.175781 281.664062 133.050781 267.710938 C 135.148438 265.613281 137.625 263.4375 140.023438 261.488281 C 143.324219 265.613281 146.023438 270.1875 147.976562 274.988281 C 146.550781 276.113281 145.273438 277.386719 144 278.664062 C 133.726562 288.9375 127.050781 302.664062 126.074219 317.886719 C 132.601562 321.5625 137.625 323.886719 142.425781 324.5625 C 147 325.164062 152.101562 324.261719 158.925781 321.863281 L 158.925781 295.835938 C 158.925781 278.886719 151.949219 263.4375 140.699219 252.335938 C 129.601562 241.085938 114.226562 234.261719 97.351562 234.261719 C 83.550781 234.261719 70.875 238.835938 60.675781 246.335938 C 51 253.613281 43.5 263.511719 39.375 275.0625 C 46.800781 287.4375 55.726562 298.988281 65.851562 309.1875 C 96.976562 340.3125 140.101562 359.511719 187.574219 359.511719 C 198.976562 359.511719 210.148438 358.386719 221.25 356.0625 C 230.773438 354.1875 240 351.488281 249.148438 348.113281 L 249.148438 322.085938 C 249.148438 305.136719 242.175781 289.835938 230.925781 278.585938 C 219.824219 267.488281 204.449219 260.511719 187.574219 260.511719 C 182.851562 260.511719 178.351562 261.113281 173.925781 262.085938 C 171.824219 257.136719 169.199219 252.414062 166.125 248.136719 C 172.949219 246.113281 180.074219 244.988281 187.574219 244.988281 C 199.5 244.988281 210.898438 247.835938 221.023438 252.636719 C 227.398438 243.261719 235.800781 235.460938 245.476562 229.613281 C 257.023438 222.636719 270.523438 218.664062 284.851562 218.664062 C 300.226562 218.664062 314.699219 223.238281 326.773438 231.1875 C 334.726562 236.4375 341.851562 243.113281 347.398438 250.988281 C 355.199219 231.113281 359.476562 209.4375 359.476562 187.386719 C 359.476562 139.914062 340.273438 96.9375 309.148438 65.8125 C 278.023438 34.6875 235.050781 15.488281 187.574219 15.488281 C 140.101562 15.488281 96.976562 34.761719 65.851562 65.886719 C 34.726562 97.011719 15.523438 139.988281 15.523438 187.460938 C 15.523438 212.511719 20.925781 236.210938 30.449219 257.738281 C 35.699219 248.511719 42.976562 240.414062 51.523438 233.960938 C 64.5 224.4375 80.25 218.738281 97.425781 218.738281 C 118.648438 218.738281 137.773438 227.4375 151.726562 241.3125 C 165.675781 255.1875 174.300781 274.613281 174.300781 295.761719 L 174.300781 327.039062 C 174.300781 330.335938 172.199219 333.261719 169.199219 334.3125 C 157.425781 339.113281 149.023438 340.835938 140.476562 339.710938 C 132.226562 338.738281 124.875 335.0625 114.75 329.136719 Z M 97.425781 134.738281 C 107.25 134.738281 116.023438 138.710938 122.476562 145.011719 C 128.851562 151.386719 132.824219 160.386719 132.824219 170.0625 C 132.824219 179.886719 128.851562 188.664062 122.476562 195.113281 C 116.101562 201.488281 107.25 205.460938 97.425781 205.460938 C 87.75 205.460938 78.824219 201.488281 72.375 195.113281 C 66 188.738281 62.101562 179.886719 62.101562 170.0625 C 62.101562 160.386719 65.925781 151.460938 72.375 145.011719 C 78.75 138.710938 87.75 134.738281 97.425781 134.738281 Z M 111.523438 155.886719 C 108 152.363281 102.976562 150.1875 97.425781 150.1875 C 92.023438 150.1875 87.074219 152.289062 83.324219 155.886719 C 79.800781 159.5625 77.476562 164.585938 77.476562 169.988281 C 77.476562 175.539062 79.726562 180.488281 83.324219 184.085938 C 87 187.613281 92.023438 189.9375 97.425781 189.9375 C 102.976562 189.9375 107.925781 187.6875 111.523438 184.085938 C 115.125 180.488281 117.375 175.539062 117.375 169.988281 C 117.300781 164.585938 115.050781 159.5625 111.523438 155.886719 Z M 277.574219 134.738281 C 287.398438 134.738281 296.175781 138.710938 302.625 145.011719 C 309 151.386719 312.898438 160.386719 312.898438 170.0625 C 312.898438 179.886719 309.074219 188.664062 302.625 195.113281 C 296.25 201.488281 287.398438 205.460938 277.574219 205.460938 C 267.75 205.460938 258.976562 201.488281 252.523438 195.113281 C 246.148438 188.738281 242.175781 179.886719 242.175781 170.0625 C 242.175781 160.386719 246.148438 151.460938 252.523438 145.011719 C 258.976562 138.710938 267.75 134.738281 277.574219 134.738281 Z M 291.675781 155.886719 C 288 152.363281 282.976562 150.1875 277.574219 150.1875 C 272.023438 150.1875 267.074219 152.289062 263.476562 155.886719 C 259.949219 159.5625 257.625 164.585938 257.625 169.988281 C 257.625 175.539062 259.875 180.488281 263.476562 184.085938 C 267.074219 187.6875 272.023438 189.9375 277.574219 189.9375 C 282.976562 189.9375 287.925781 187.6875 291.675781 184.085938 C 295.199219 180.5625 297.523438 175.539062 297.523438 169.988281 C 297.523438 164.585938 295.199219 159.5625 291.675781 155.886719 Z M 187.574219 160.460938 C 197.25 160.460938 206.023438 164.4375 212.476562 170.8125 C 218.851562 177.1875 222.824219 186.039062 222.824219 195.863281 C 222.824219 205.539062 218.851562 214.3125 212.476562 220.761719 C 206.101562 227.136719 197.25 231.113281 187.574219 231.113281 C 177.75 231.113281 168.976562 227.136719 162.523438 220.761719 C 156.148438 214.386719 152.175781 205.539062 152.175781 195.863281 C 152.175781 186.039062 156.148438 177.261719 162.523438 170.8125 C 168.976562 164.4375 177.75 160.460938 187.574219 160.460938 Z M 201.523438 181.761719 C 198 178.238281 192.976562 175.914062 187.574219 175.914062 C 182.023438 175.914062 177.074219 178.164062 173.476562 181.761719 C 169.800781 185.289062 167.625 190.3125 167.625 195.863281 C 167.625 201.261719 169.726562 206.210938 173.476562 209.8125 C 177 213.488281 182.023438 215.664062 187.574219 215.664062 C 192.976562 215.664062 197.925781 213.5625 201.523438 209.8125 C 205.199219 206.289062 207.375 201.261719 207.375 195.863281 C 207.375 190.3125 205.199219 185.363281 201.523438 181.761719 Z M 234.074219 260.8125 C 236.925781 262.914062 239.476562 265.238281 241.875 267.636719 C 255.824219 281.585938 264.449219 300.9375 264.449219 322.085938 L 264.449219 353.363281 C 264.449219 356.886719 262.199219 359.886719 258.898438 360.789062 C 247.648438 365.511719 236.023438 368.886719 224.324219 371.289062 C 212.25 373.6875 199.875 374.960938 187.5 374.960938 C 135.601562 374.960938 88.800781 353.886719 54.824219 320.0625 C 21.074219 286.164062 0 239.363281 0 187.460938 C 0 135.710938 21.074219 88.914062 54.898438 54.9375 C 88.875 21.113281 135.675781 0.0390625 187.574219 0.0390625 C 239.324219 0.0390625 286.125 21.113281 320.101562 54.9375 C 353.925781 88.914062 375 135.710938 375 187.460938 C 375 216.789062 368.175781 245.210938 355.5 270.789062 C 355.199219 271.238281 355.050781 271.613281 354.824219 272.0625 C 354.226562 273.039062 353.851562 274.085938 353.25 275.0625 C 339.300781 301.6875 318.824219 324.863281 293.25 342.335938 C 289.726562 344.738281 285 343.761719 282.601562 340.3125 C 280.199219 336.789062 281.023438 331.914062 284.625 329.511719 C 308.101562 313.460938 326.851562 292.238281 339.675781 267.789062 C 334.875 258.261719 327.449219 250.011719 318.449219 244.164062 C 308.773438 237.9375 297.226562 234.1875 284.925781 234.1875 C 273.375 234.1875 262.574219 237.335938 253.5 242.886719 C 245.699219 247.460938 239.175781 253.613281 234.074219 260.8125 Z M 234.074219 260.8125 " fill-opacity="1" fill-rule="nonzero"/></svg>